<mxfile host="app.diagrams.net" agent="Mozilla/5.0 (Windows NT 10.0; Win64; x64) AppleWebKit/537.36 (KHTML, like Gecko) Chrome/131.0.0.0 Safari/537.36" version="26.0.4">
  <diagram id="R2lEEEUBdFMjLlhIrx00" name="Page-1">
    <mxGraphModel dx="1208" dy="1821" grid="1" gridSize="10" guides="1" tooltips="1" connect="1" arrows="1" fold="1" page="1" pageScale="1" pageWidth="850" pageHeight="1100" math="0" shadow="0" extFonts="Permanent Marker^https://fonts.googleapis.com/css?family=Permanent+Marker">
      <root>
        <mxCell id="0" />
        <mxCell id="1" parent="0" />
        <mxCell id="rZDdONpK-69G55fFkWeW-1" value="Benutzer" style="whiteSpace=wrap;html=1;align=center;" vertex="1" parent="1">
          <mxGeometry x="350" y="250" width="100" height="40" as="geometry" />
        </mxCell>
        <mxCell id="rZDdONpK-69G55fFkWeW-2" value="Benutzerid" style="ellipse;whiteSpace=wrap;html=1;align=center;fontStyle=4;" vertex="1" parent="1">
          <mxGeometry x="360" y="80" width="100" height="40" as="geometry" />
        </mxCell>
        <mxCell id="rZDdONpK-69G55fFkWeW-3" value="email" style="ellipse;whiteSpace=wrap;html=1;align=center;" vertex="1" parent="1">
          <mxGeometry x="140" y="230" width="100" height="40" as="geometry" />
        </mxCell>
        <mxCell id="rZDdONpK-69G55fFkWeW-4" value="name" style="ellipse;whiteSpace=wrap;html=1;align=center;" vertex="1" parent="1">
          <mxGeometry x="180" y="160" width="100" height="40" as="geometry" />
        </mxCell>
        <mxCell id="rZDdONpK-69G55fFkWeW-5" value="admin" style="ellipse;whiteSpace=wrap;html=1;align=center;" vertex="1" parent="1">
          <mxGeometry x="260" y="110" width="100" height="40" as="geometry" />
        </mxCell>
        <mxCell id="rZDdONpK-69G55fFkWeW-6" value="password" style="ellipse;whiteSpace=wrap;html=1;align=center;" vertex="1" parent="1">
          <mxGeometry x="200" y="310" width="100" height="40" as="geometry" />
        </mxCell>
        <mxCell id="rZDdONpK-69G55fFkWeW-7" value="Gericht" style="whiteSpace=wrap;html=1;align=center;" vertex="1" parent="1">
          <mxGeometry x="740" y="180" width="100" height="40" as="geometry" />
        </mxCell>
        <mxCell id="rZDdONpK-69G55fFkWeW-8" value="Gerichtid" style="ellipse;whiteSpace=wrap;html=1;align=center;fontStyle=4;" vertex="1" parent="1">
          <mxGeometry x="640" y="290" width="100" height="40" as="geometry" />
        </mxCell>
        <mxCell id="rZDdONpK-69G55fFkWeW-10" value="name" style="ellipse;whiteSpace=wrap;html=1;align=center;" vertex="1" parent="1">
          <mxGeometry x="740" y="310" width="80" height="40" as="geometry" />
        </mxCell>
        <mxCell id="rZDdONpK-69G55fFkWeW-13" value="" style="endArrow=none;html=1;rounded=0;entryX=0.647;entryY=0.942;entryDx=0;entryDy=0;entryPerimeter=0;exitX=0.603;exitY=0.025;exitDx=0;exitDy=0;exitPerimeter=0;" edge="1" parent="1" source="rZDdONpK-69G55fFkWeW-1" target="rZDdONpK-69G55fFkWeW-5">
          <mxGeometry relative="1" as="geometry">
            <mxPoint x="350" y="250" as="sourcePoint" />
            <mxPoint x="510" y="250" as="targetPoint" />
          </mxGeometry>
        </mxCell>
        <mxCell id="rZDdONpK-69G55fFkWeW-29" value="n" style="endArrow=none;html=1;rounded=0;exitX=1;exitY=1;exitDx=0;exitDy=0;" edge="1" parent="1" source="rZDdONpK-69G55fFkWeW-40" target="rZDdONpK-69G55fFkWeW-52">
          <mxGeometry relative="1" as="geometry">
            <mxPoint x="722.7" y="127.68000000000006" as="sourcePoint" />
            <mxPoint x="790" y="179.5" as="targetPoint" />
          </mxGeometry>
        </mxCell>
        <mxCell id="rZDdONpK-69G55fFkWeW-31" value="" style="endArrow=none;html=1;rounded=0;exitX=0.613;exitY=-0.025;exitDx=0;exitDy=0;exitPerimeter=0;" edge="1" parent="1" source="rZDdONpK-69G55fFkWeW-6">
          <mxGeometry relative="1" as="geometry">
            <mxPoint x="200" y="290" as="sourcePoint" />
            <mxPoint x="360" y="290" as="targetPoint" />
          </mxGeometry>
        </mxCell>
        <mxCell id="rZDdONpK-69G55fFkWeW-32" value="" style="endArrow=none;html=1;rounded=0;exitX=0.92;exitY=0.725;exitDx=0;exitDy=0;exitPerimeter=0;" edge="1" parent="1" source="rZDdONpK-69G55fFkWeW-3">
          <mxGeometry relative="1" as="geometry">
            <mxPoint x="210" y="270" as="sourcePoint" />
            <mxPoint x="330" y="270" as="targetPoint" />
          </mxGeometry>
        </mxCell>
        <mxCell id="rZDdONpK-69G55fFkWeW-33" value="" style="endArrow=none;html=1;rounded=0;exitX=0.667;exitY=0.942;exitDx=0;exitDy=0;exitPerimeter=0;" edge="1" parent="1" source="rZDdONpK-69G55fFkWeW-4">
          <mxGeometry relative="1" as="geometry">
            <mxPoint x="210" y="250" as="sourcePoint" />
            <mxPoint x="370" y="250" as="targetPoint" />
          </mxGeometry>
        </mxCell>
        <mxCell id="rZDdONpK-69G55fFkWeW-34" value="" style="endArrow=none;html=1;rounded=0;exitX=0.5;exitY=0;exitDx=0;exitDy=0;" edge="1" parent="1" source="rZDdONpK-69G55fFkWeW-10">
          <mxGeometry relative="1" as="geometry">
            <mxPoint x="640" y="220" as="sourcePoint" />
            <mxPoint x="800" y="220" as="targetPoint" />
          </mxGeometry>
        </mxCell>
        <mxCell id="rZDdONpK-69G55fFkWeW-37" value="" style="endArrow=none;html=1;rounded=0;exitX=0;exitY=1;exitDx=0;exitDy=0;" edge="1" parent="1" source="rZDdONpK-69G55fFkWeW-7">
          <mxGeometry relative="1" as="geometry">
            <mxPoint x="540" y="290" as="sourcePoint" />
            <mxPoint x="700" y="290" as="targetPoint" />
          </mxGeometry>
        </mxCell>
        <mxCell id="rZDdONpK-69G55fFkWeW-40" value="Bewertung" style="whiteSpace=wrap;html=1;align=center;" vertex="1" parent="1">
          <mxGeometry x="460" y="-30" width="100" height="40" as="geometry" />
        </mxCell>
        <mxCell id="rZDdONpK-69G55fFkWeW-41" value="&lt;b&gt;Bewertungid&lt;/b&gt;" style="ellipse;whiteSpace=wrap;html=1;align=center;fontStyle=4;" vertex="1" parent="1">
          <mxGeometry x="230" y="-80" width="100" height="40" as="geometry" />
        </mxCell>
        <mxCell id="rZDdONpK-69G55fFkWeW-44" value="highlighted" style="ellipse;whiteSpace=wrap;html=1;align=center;" vertex="1" parent="1">
          <mxGeometry x="420" y="-190" width="100" height="40" as="geometry" />
        </mxCell>
        <mxCell id="rZDdONpK-69G55fFkWeW-45" value="bewertungszeitpunkt" style="ellipse;whiteSpace=wrap;html=1;align=center;" vertex="1" parent="1">
          <mxGeometry x="690" y="-130" width="100" height="40" as="geometry" />
        </mxCell>
        <mxCell id="rZDdONpK-69G55fFkWeW-46" value="sterne" style="ellipse;whiteSpace=wrap;html=1;align=center;" vertex="1" parent="1">
          <mxGeometry x="550" y="-180" width="100" height="40" as="geometry" />
        </mxCell>
        <mxCell id="rZDdONpK-69G55fFkWeW-47" value="bemerkung" style="ellipse;whiteSpace=wrap;html=1;align=center;" vertex="1" parent="1">
          <mxGeometry x="280" y="-150" width="100" height="40" as="geometry" />
        </mxCell>
        <mxCell id="rZDdONpK-69G55fFkWeW-48" value="" style="endArrow=none;html=1;rounded=0;entryX=0.5;entryY=1;entryDx=0;entryDy=0;exitX=0.75;exitY=0;exitDx=0;exitDy=0;" edge="1" parent="1" source="rZDdONpK-69G55fFkWeW-1" target="rZDdONpK-69G55fFkWeW-2">
          <mxGeometry relative="1" as="geometry">
            <mxPoint x="370" y="249.5" as="sourcePoint" />
            <mxPoint x="530" y="249.5" as="targetPoint" />
          </mxGeometry>
        </mxCell>
        <mxCell id="rZDdONpK-69G55fFkWeW-49" value="" style="endArrow=none;html=1;rounded=0;entryX=0;entryY=1;entryDx=0;entryDy=0;" edge="1" parent="1" target="rZDdONpK-69G55fFkWeW-40">
          <mxGeometry relative="1" as="geometry">
            <mxPoint x="400" y="80" as="sourcePoint" />
            <mxPoint x="560" y="80" as="targetPoint" />
          </mxGeometry>
        </mxCell>
        <mxCell id="rZDdONpK-69G55fFkWeW-50" value="" style="endArrow=none;html=1;rounded=0;entryX=0.3;entryY=0;entryDx=0;entryDy=0;entryPerimeter=0;exitX=0.75;exitY=1;exitDx=0;exitDy=0;" edge="1" parent="1" source="rZDdONpK-69G55fFkWeW-40" target="rZDdONpK-69G55fFkWeW-8">
          <mxGeometry relative="1" as="geometry">
            <mxPoint x="480" y="10" as="sourcePoint" />
            <mxPoint x="640" y="10" as="targetPoint" />
          </mxGeometry>
        </mxCell>
        <mxCell id="rZDdONpK-69G55fFkWeW-52" value="besitzt" style="shape=rhombus;perimeter=rhombusPerimeter;whiteSpace=wrap;html=1;align=center;" vertex="1" parent="1">
          <mxGeometry x="640" y="60" width="120" height="60" as="geometry" />
        </mxCell>
        <mxCell id="rZDdONpK-69G55fFkWeW-53" value="1" style="endArrow=none;html=1;rounded=0;entryX=0.393;entryY=-0.092;entryDx=0;entryDy=0;entryPerimeter=0;" edge="1" parent="1" target="rZDdONpK-69G55fFkWeW-7">
          <mxGeometry relative="1" as="geometry">
            <mxPoint x="710" y="119" as="sourcePoint" />
            <mxPoint x="870" y="119" as="targetPoint" />
          </mxGeometry>
        </mxCell>
        <mxCell id="rZDdONpK-69G55fFkWeW-54" value="macht" style="shape=rhombus;perimeter=rhombusPerimeter;whiteSpace=wrap;html=1;align=center;" vertex="1" parent="1">
          <mxGeometry x="420" y="120" width="120" height="60" as="geometry" />
        </mxCell>
        <mxCell id="rZDdONpK-69G55fFkWeW-56" value="1" style="endArrow=none;html=1;rounded=0;entryX=0.433;entryY=0.961;entryDx=0;entryDy=0;entryPerimeter=0;" edge="1" parent="1" target="rZDdONpK-69G55fFkWeW-54">
          <mxGeometry relative="1" as="geometry">
            <mxPoint x="430" y="249.5" as="sourcePoint" />
            <mxPoint x="590" y="249.5" as="targetPoint" />
          </mxGeometry>
        </mxCell>
        <mxCell id="rZDdONpK-69G55fFkWeW-57" value="n" style="endArrow=none;html=1;rounded=0;entryX=0.407;entryY=1.042;entryDx=0;entryDy=0;entryPerimeter=0;" edge="1" parent="1" target="rZDdONpK-69G55fFkWeW-40">
          <mxGeometry relative="1" as="geometry">
            <mxPoint x="490" y="120" as="sourcePoint" />
            <mxPoint x="650" y="120" as="targetPoint" />
          </mxGeometry>
        </mxCell>
        <mxCell id="rZDdONpK-69G55fFkWeW-58" value="" style="endArrow=none;html=1;rounded=0;exitX=1;exitY=0.5;exitDx=0;exitDy=0;" edge="1" parent="1" source="rZDdONpK-69G55fFkWeW-41">
          <mxGeometry relative="1" as="geometry">
            <mxPoint x="340" y="-30" as="sourcePoint" />
            <mxPoint x="500" y="-30" as="targetPoint" />
          </mxGeometry>
        </mxCell>
        <mxCell id="rZDdONpK-69G55fFkWeW-59" value="" style="endArrow=none;html=1;rounded=0;exitX=1;exitY=1;exitDx=0;exitDy=0;" edge="1" parent="1" source="rZDdONpK-69G55fFkWeW-47">
          <mxGeometry relative="1" as="geometry">
            <mxPoint x="340" y="-30" as="sourcePoint" />
            <mxPoint x="500" y="-30" as="targetPoint" />
          </mxGeometry>
        </mxCell>
        <mxCell id="rZDdONpK-69G55fFkWeW-60" value="" style="endArrow=none;html=1;rounded=0;exitX=0.713;exitY=1.042;exitDx=0;exitDy=0;exitPerimeter=0;" edge="1" parent="1" source="rZDdONpK-69G55fFkWeW-44">
          <mxGeometry relative="1" as="geometry">
            <mxPoint x="340" y="-30" as="sourcePoint" />
            <mxPoint x="500" y="-30" as="targetPoint" />
          </mxGeometry>
        </mxCell>
        <mxCell id="rZDdONpK-69G55fFkWeW-61" value="" style="endArrow=none;html=1;rounded=0;exitX=0.5;exitY=1;exitDx=0;exitDy=0;" edge="1" parent="1" source="rZDdONpK-69G55fFkWeW-46">
          <mxGeometry relative="1" as="geometry">
            <mxPoint x="340" y="-30" as="sourcePoint" />
            <mxPoint x="500" y="-30" as="targetPoint" />
          </mxGeometry>
        </mxCell>
        <mxCell id="rZDdONpK-69G55fFkWeW-62" value="" style="endArrow=none;html=1;rounded=0;exitX=0;exitY=1;exitDx=0;exitDy=0;" edge="1" parent="1" source="rZDdONpK-69G55fFkWeW-45">
          <mxGeometry relative="1" as="geometry">
            <mxPoint x="340" y="-30" as="sourcePoint" />
            <mxPoint x="500" y="-30" as="targetPoint" />
          </mxGeometry>
        </mxCell>
      </root>
    </mxGraphModel>
  </diagram>
</mxfile>
